<svg xmlns="http://www.w3.org/2000/svg" class="elmo" viewBox="0 0 453.9 479.05" width="453.9" height="479.05" font-family="sans-serif"><style>.elmo{--elmo-fg:#1c1c1c;--elmo-bg:#ffffff;--elmo-accent:#b23b2e;--elmo-muted:#666;--elmo-tag:#f3f3f3;}
@media (prefers-color-scheme: dark){.elmo{--elmo-fg:#e6e6e6;--elmo-bg:#1e1e1e;--elmo-accent:#ff7a6e;--elmo-muted:#9a9a9a;--elmo-tag:#2a2a2a;}}
:root[data-theme="dark"] .elmo{--elmo-fg:#e6e6e6;--elmo-bg:#1e1e1e;--elmo-accent:#ff7a6e;--elmo-muted:#9a9a9a;--elmo-tag:#2a2a2a;}
:root[data-theme="light"] .elmo{--elmo-fg:#1c1c1c;--elmo-bg:#ffffff;--elmo-accent:#b23b2e;--elmo-muted:#666;--elmo-tag:#f3f3f3;}
.elmo.elmo-theme-light{--elmo-fg:#1c1c1c;--elmo-bg:#ffffff;--elmo-accent:#b23b2e;--elmo-muted:#666;--elmo-tag:#f3f3f3;}
.elmo.elmo-theme-dark{--elmo-fg:#e6e6e6;--elmo-bg:#1e1e1e;--elmo-accent:#ff7a6e;--elmo-muted:#9a9a9a;--elmo-tag:#2a2a2a;}
.elmo.elmo-theme-mono{--elmo-fg:#111;--elmo-bg:#fff;--elmo-accent:#111;--elmo-muted:#555;--elmo-tag:#fff;}
.elmo .elmo-body{fill:var(--elmo-bg);stroke:var(--elmo-fg);stroke-width:1.5;}
.elmo .elmo-pin,.elmo .elmo-net,.elmo .elmo-wire{stroke:var(--elmo-fg);stroke-width:1.2;fill:none;}
.elmo .elmo-sym{stroke:var(--elmo-fg);stroke-width:1.5;fill:none;stroke-linejoin:round;stroke-linecap:round;}
.elmo .elmo-sym-fill{stroke:var(--elmo-fg);stroke-width:1;fill:var(--elmo-fg);}
.elmo .elmo-symtext{fill:var(--elmo-fg);font:600 10px ui-sans-serif,system-ui,sans-serif;dominant-baseline:middle;}
.elmo .elmo-dash{stroke:var(--elmo-muted);stroke-width:1;stroke-dasharray:2 2;}
.elmo .elmo-ref{fill:var(--elmo-fg);font:700 12px ui-sans-serif,system-ui,sans-serif;}
.elmo .elmo-value{fill:var(--elmo-muted);font:400 10px ui-sans-serif,system-ui,sans-serif;}
.elmo .elmo-pinname{fill:var(--elmo-fg);font:400 10px ui-monospace,monospace;}
.elmo .elmo-pinnum{fill:var(--elmo-muted);font:400 8px ui-monospace,monospace;}
.elmo .elmo-powerlabel,.elmo .elmo-gndlabel{fill:var(--elmo-accent);font:600 9px ui-monospace,monospace;}
.elmo .elmo-taglabel{fill:var(--elmo-tag);stroke:var(--elmo-accent);stroke-width:1;}
.elmo .elmo-nettext{fill:var(--elmo-accent);font:600 9px ui-monospace,monospace;}
.elmo .elmo-title{fill:var(--elmo-fg);font:700 15px ui-sans-serif,system-ui,sans-serif;}
.elmo .elmo-junction{fill:var(--elmo-fg);stroke:none;}
.elmo .elmo-group{fill:none;stroke:var(--elmo-muted);stroke-width:1;stroke-dasharray:5 4;}
.elmo .elmo-grouplabel{fill:var(--elmo-muted);font:600 11px ui-sans-serif,system-ui,sans-serif;}
.elmo a text{fill:var(--elmo-accent);text-decoration:underline;cursor:pointer;}
.elmo text{paint-order:stroke;stroke:var(--elmo-bg);stroke-width:3px;stroke-linejoin:round;}</style><rect x="0" y="0" width="453.9" height="479.05" fill="var(--elmo-bg)"/><text class="elmo-title" x="56" y="20" text-anchor="start" dominant-baseline="middle">board with imported PSU</text><g transform="translate(56 86)"><polyline class="elmo-wire" fill="none" points="42,245.05 12,245.05 12,306.1 231.7,306.1"/><polyline class="elmo-wire" fill="none" points="131.7,134.05 201.7,134.05"/><g class="elmo-part"><g transform="matrix(1 0 0 1 56.1 218)"><rect class="elmo-body" x="0" y="0" width="91.5" height="54" rx="3"/></g><text class="elmo-ref" x="56.1" y="210" text-anchor="start" dominant-baseline="middle">psu.U1</text><text class="elmo-value" x="110.1" y="210" text-anchor="start" dominant-baseline="middle">AMS1117-3.3</text><line class="elmo-pin" x1="56.1" y1="245" x2="42.1" y2="245"/><text class="elmo-pinname" x="61.1" y="245" text-anchor="start" dominant-baseline="middle">IN</text><text class="elmo-pinnum" x="45.1" y="239" text-anchor="end" dominant-baseline="middle">3</text><line class="elmo-pin" x1="147.6" y1="245" x2="161.6" y2="245"/><text class="elmo-pinname" x="142.6" y="245" text-anchor="end" dominant-baseline="middle">OUT</text><text class="elmo-pinnum" x="158.6" y="239" text-anchor="start" dominant-baseline="middle">2</text><line class="elmo-pin" x1="101.85" y1="272" x2="101.85" y2="286"/><text class="elmo-pinname" x="101.85" y="267" text-anchor="middle" dominant-baseline="middle">GND</text><text class="elmo-pinnum" x="101.85" y="277" text-anchor="middle" dominant-baseline="middle">1</text></g><g class="elmo-part"><g transform="matrix(1 0 0 1 245.8 287.05)"><line class="elmo-pin" x1="-14" y1="19" x2="30" y2="19"/><line class="elmo-pin" x1="40" y1="19" x2="84" y2="19"/><line class="elmo-sym" x1="31" y1="10" x2="31" y2="28"/><line class="elmo-sym" x1="39" y1="10" x2="39" y2="28"/></g><text class="elmo-ref" x="280.8" y="269.05" text-anchor="middle" dominant-baseline="middle">psu.C1</text><text class="elmo-value" x="280.8" y="281.05" text-anchor="middle" dominant-baseline="middle">10u</text></g><g class="elmo-part"><g transform="matrix(1 0 0 1 26.1 12)"><line class="elmo-pin" x1="-14" y1="19" x2="30" y2="19"/><line class="elmo-pin" x1="40" y1="19" x2="84" y2="19"/><line class="elmo-sym" x1="31" y1="10" x2="31" y2="28"/><line class="elmo-sym" x1="39" y1="10" x2="39" y2="28"/></g><text class="elmo-ref" x="61.1" y="-6" text-anchor="middle" dominant-baseline="middle">psu.C2</text><text class="elmo-value" x="61.1" y="6" text-anchor="middle" dominant-baseline="middle">100n</text></g><g class="elmo-part"><g transform="matrix(1 0 0 1 26.1 94)"><rect class="elmo-body" x="0" y="0" width="91.5" height="80" rx="3"/></g><text class="elmo-ref" x="26.1" y="86" text-anchor="start" dominant-baseline="middle">U2</text><text class="elmo-value" x="48.1" y="86" text-anchor="start" dominant-baseline="middle">ESP32-WROOM</text><line class="elmo-pin" x1="26.1" y1="120.67" x2="12.1" y2="120.67"/><text class="elmo-pinname" x="31.1" y="120.67" text-anchor="start" dominant-baseline="middle">GND</text><text class="elmo-pinnum" x="15.1" y="114.67" text-anchor="end" dominant-baseline="middle">1</text><line class="elmo-pin" x1="26.1" y1="147.33" x2="12.1" y2="147.33"/><text class="elmo-pinname" x="31.1" y="147.33" text-anchor="start" dominant-baseline="middle">3V3</text><text class="elmo-pinnum" x="15.1" y="141.33" text-anchor="end" dominant-baseline="middle">2</text><line class="elmo-pin" x1="117.6" y1="134" x2="131.6" y2="134"/><text class="elmo-pinname" x="112.6" y="134" text-anchor="end" dominant-baseline="middle">EN</text><text class="elmo-pinnum" x="128.6" y="128" text-anchor="start" dominant-baseline="middle">38</text></g><g class="elmo-part"><g transform="matrix(1 0 0 1 215.8 115)"><line class="elmo-pin" x1="-14" y1="19" x2="17" y2="19"/><line class="elmo-pin" x1="53" y1="19" x2="84" y2="19"/><polyline class="elmo-sym" fill="none" points="17,19 23,13 29,25 35,13 41,25 47,13 53,19"/></g><text class="elmo-ref" x="250.8" y="97" text-anchor="middle" dominant-baseline="middle">R1</text><text class="elmo-value" x="250.8" y="109" text-anchor="middle" dominant-baseline="middle">10k</text></g><line class="elmo-net" x1="161.6" y1="245" x2="167.6" y2="245"/><rect class="elmo-taglabel" x="167.6" y="237.5" width="64" height="15" rx="7"/><text class="elmo-nettext" x="199.6" y="245" text-anchor="middle" dominant-baseline="middle">psu.vout</text><line class="elmo-net" x1="12.1" y1="31" x2="6.1" y2="31"/><rect class="elmo-taglabel" x="-57.9" y="23.5" width="64" height="15" rx="7"/><text class="elmo-nettext" x="-25.9" y="31" text-anchor="middle" dominant-baseline="middle">psu.vout</text><line class="elmo-net" x1="12.1" y1="147.33" x2="6.1" y2="147.33"/><rect class="elmo-taglabel" x="-57.9" y="139.83" width="64" height="15" rx="7"/><text class="elmo-nettext" x="-25.9" y="147.33" text-anchor="middle" dominant-baseline="middle">psu.vout</text><line class="elmo-net" x1="101.85" y1="286" x2="101.85" y2="292"/><line class="elmo-net" x1="93.85" y1="292" x2="109.85" y2="292"/><line class="elmo-net" x1="96.85" y1="296" x2="106.85" y2="296"/><line class="elmo-net" x1="99.85" y1="300" x2="103.85" y2="300"/><line class="elmo-net" x1="329.8" y1="306.05" x2="335.8" y2="306.05"/><line class="elmo-net" x1="335.8" y1="314.05" x2="335.8" y2="298.05"/><line class="elmo-net" x1="339.8" y1="311.05" x2="339.8" y2="301.05"/><line class="elmo-net" x1="343.8" y1="308.05" x2="343.8" y2="304.05"/><line class="elmo-net" x1="110.1" y1="31" x2="116.1" y2="31"/><line class="elmo-net" x1="116.1" y1="39" x2="116.1" y2="23"/><line class="elmo-net" x1="120.1" y1="36" x2="120.1" y2="26"/><line class="elmo-net" x1="124.1" y1="33" x2="124.1" y2="29"/><line class="elmo-net" x1="42.1" y1="245" x2="34.1" y2="245"/><line class="elmo-net" x1="34.1" y1="236" x2="34.1" y2="254"/><text class="elmo-powerlabel" x="27.1" y="245" text-anchor="end" dominant-baseline="middle">VIN</text><line class="elmo-net" x1="101.85" y1="286" x2="101.85" y2="292"/><line class="elmo-net" x1="93.85" y1="292" x2="109.85" y2="292"/><line class="elmo-net" x1="96.85" y1="296" x2="106.85" y2="296"/><line class="elmo-net" x1="99.85" y1="300" x2="103.85" y2="300"/><line class="elmo-net" x1="12.1" y1="120.67" x2="6.1" y2="120.67"/><line class="elmo-net" x1="6.1" y1="112.67" x2="6.1" y2="128.67"/><line class="elmo-net" x1="2.1" y1="115.67" x2="2.1" y2="125.67"/><line class="elmo-net" x1="-1.9" y1="118.67" x2="-1.9" y2="122.67"/></g></svg>