<svg xmlns="http://www.w3.org/2000/svg" class="elmo" viewBox="0 0 804.8 1182.2" width="804.8" height="1182.2" font-family="sans-serif"><style>.elmo{--elmo-fg:#1c1c1c;--elmo-bg:#ffffff;--elmo-accent:#b23b2e;--elmo-muted:#666;--elmo-tag:#f3f3f3;}
@media (prefers-color-scheme: dark){.elmo{--elmo-fg:#e6e6e6;--elmo-bg:#1e1e1e;--elmo-accent:#ff7a6e;--elmo-muted:#9a9a9a;--elmo-tag:#2a2a2a;}}
:root[data-theme="dark"] .elmo{--elmo-fg:#e6e6e6;--elmo-bg:#1e1e1e;--elmo-accent:#ff7a6e;--elmo-muted:#9a9a9a;--elmo-tag:#2a2a2a;}
:root[data-theme="light"] .elmo{--elmo-fg:#1c1c1c;--elmo-bg:#ffffff;--elmo-accent:#b23b2e;--elmo-muted:#666;--elmo-tag:#f3f3f3;}
.elmo.elmo-theme-light{--elmo-fg:#1c1c1c;--elmo-bg:#ffffff;--elmo-accent:#b23b2e;--elmo-muted:#666;--elmo-tag:#f3f3f3;}
.elmo.elmo-theme-dark{--elmo-fg:#e6e6e6;--elmo-bg:#1e1e1e;--elmo-accent:#ff7a6e;--elmo-muted:#9a9a9a;--elmo-tag:#2a2a2a;}
.elmo.elmo-theme-mono{--elmo-fg:#111;--elmo-bg:#fff;--elmo-accent:#111;--elmo-muted:#555;--elmo-tag:#fff;}
.elmo .elmo-body{fill:var(--elmo-bg);stroke:var(--elmo-fg);stroke-width:1.5;}
.elmo .elmo-pin,.elmo .elmo-net,.elmo .elmo-wire{stroke:var(--elmo-fg);stroke-width:1.2;fill:none;}
.elmo .elmo-sym{stroke:var(--elmo-fg);stroke-width:1.5;fill:none;stroke-linejoin:round;stroke-linecap:round;}
.elmo .elmo-sym-fill{stroke:var(--elmo-fg);stroke-width:1;fill:var(--elmo-fg);}
.elmo .elmo-symtext{fill:var(--elmo-fg);font:600 10px ui-sans-serif,system-ui,sans-serif;dominant-baseline:middle;}
.elmo .elmo-dash{stroke:var(--elmo-muted);stroke-width:1;stroke-dasharray:2 2;}
.elmo .elmo-ref{fill:var(--elmo-fg);font:700 12px ui-sans-serif,system-ui,sans-serif;}
.elmo .elmo-value{fill:var(--elmo-muted);font:400 10px ui-sans-serif,system-ui,sans-serif;}
.elmo .elmo-pinname{fill:var(--elmo-fg);font:400 10px ui-monospace,monospace;}
.elmo .elmo-pinnum{fill:var(--elmo-muted);font:400 8px ui-monospace,monospace;}
.elmo .elmo-powerlabel,.elmo .elmo-gndlabel{fill:var(--elmo-accent);font:600 9px ui-monospace,monospace;}
.elmo .elmo-taglabel{fill:var(--elmo-tag);stroke:var(--elmo-accent);stroke-width:1;}
.elmo .elmo-nettext{fill:var(--elmo-accent);font:600 9px ui-monospace,monospace;}
.elmo .elmo-title{fill:var(--elmo-fg);font:700 15px ui-sans-serif,system-ui,sans-serif;}
.elmo .elmo-junction{fill:var(--elmo-fg);stroke:none;}
.elmo .elmo-group{fill:none;stroke:var(--elmo-muted);stroke-width:1;stroke-dasharray:5 4;}
.elmo .elmo-grouplabel{fill:var(--elmo-muted);font:600 11px ui-sans-serif,system-ui,sans-serif;}
.elmo a text{fill:var(--elmo-accent);text-decoration:underline;cursor:pointer;}
.elmo text{paint-order:stroke;stroke:var(--elmo-bg);stroke-width:3px;stroke-linejoin:round;}</style><rect x="0" y="0" width="804.8" height="1182.2" fill="var(--elmo-bg)"/><text class="elmo-title" x="56" y="20" text-anchor="start" dominant-baseline="middle">elmo symbol gallery</text><g transform="translate(56 86)"><g class="elmo-part"><g transform="matrix(1 0 0 1 26.1 12)"><line class="elmo-pin" x1="-14" y1="19" x2="17" y2="19"/><line class="elmo-pin" x1="53" y1="19" x2="84" y2="19"/><polyline class="elmo-sym" fill="none" points="17,19 23,13 29,25 35,13 41,25 47,13 53,19"/></g><text class="elmo-ref" x="61.1" y="-6" text-anchor="middle" dominant-baseline="middle">R1</text><text class="elmo-value" x="61.1" y="6" text-anchor="middle" dominant-baseline="middle">10k</text></g><g class="elmo-part"><g transform="matrix(1 0 0 1 26.1 534.1)"><line class="elmo-pin" x1="-14" y1="27" x2="17" y2="27"/><line class="elmo-pin" x1="53" y1="27" x2="84" y2="27"/><polyline class="elmo-sym" fill="none" points="17,27 23,21 29,33 35,21 41,33 47,21 53,27"/><line class="elmo-sym" x1="35" y1="-14" x2="35" y2="13"/><line class="elmo-sym" x1="35" y1="13" x2="35" y2="23"/><path class="elmo-sym-fill" d="M 35,23 L 32,18 L 38,18 Z"/></g><text class="elmo-ref" x="26.1" y="492.1" text-anchor="start" dominant-baseline="middle">RV1</text><text class="elmo-value" x="26.1" y="504.1" text-anchor="start" dominant-baseline="middle">10k</text></g><g class="elmo-part"><g transform="matrix(1 0 0 1 168.3 12)"><line class="elmo-pin" x1="-14" y1="19" x2="17" y2="19"/><line class="elmo-pin" x1="53" y1="19" x2="84" y2="19"/><polyline class="elmo-sym" fill="none" points="17,19 23,13 29,25 35,13 41,25 47,13 53,19"/><line class="elmo-sym" x1="23" y1="32" x2="49" y2="6"/><path class="elmo-sym-fill" d="M 49,6 L 47.39,11.59 L 43.31,7.21 Z"/></g><text class="elmo-ref" x="203.3" y="-6" text-anchor="middle" dominant-baseline="middle">RH1</text><text class="elmo-value" x="203.3" y="6" text-anchor="middle" dominant-baseline="middle">1k</text></g><g class="elmo-part"><g transform="matrix(1 0 0 1 310.5 12)"><line class="elmo-pin" x1="-14" y1="19" x2="19" y2="19"/><line class="elmo-pin" x1="51" y1="19" x2="84" y2="19"/><rect class="elmo-sym" x="19" y="13" width="32" height="12" rx="0"/><polyline class="elmo-sym" fill="none" points="19,31 25,31 49,7"/></g><text class="elmo-ref" x="345.5" y="-6" text-anchor="middle" dominant-baseline="middle">TH1</text><text class="elmo-value" x="345.5" y="6" text-anchor="middle" dominant-baseline="middle">ntc</text></g><g class="elmo-part"><g transform="matrix(1 0 0 1 452.7 12)"><line class="elmo-pin" x1="-14" y1="19" x2="19" y2="19"/><line class="elmo-pin" x1="51" y1="19" x2="84" y2="19"/><rect class="elmo-sym" x="19" y="13" width="32" height="12" rx="0"/><polyline class="elmo-sym" fill="none" points="21,31 49,7"/><text class="elmo-symtext" x="26" y="8" text-anchor="middle">U</text></g><text class="elmo-ref" x="487.7" y="-6" text-anchor="middle" dominant-baseline="middle">MOV1</text><text class="elmo-value" x="487.7" y="6" text-anchor="middle" dominant-baseline="middle">14V</text></g><g class="elmo-part"><g transform="matrix(1 0 0 1 594.9 12)"><line class="elmo-pin" x1="-14" y1="19" x2="30" y2="19"/><line class="elmo-pin" x1="40" y1="19" x2="84" y2="19"/><line class="elmo-sym" x1="31" y1="10" x2="31" y2="28"/><line class="elmo-sym" x1="39" y1="10" x2="39" y2="28"/></g><text class="elmo-ref" x="629.9" y="-6" text-anchor="middle" dominant-baseline="middle">C1</text><text class="elmo-value" x="629.9" y="6" text-anchor="middle" dominant-baseline="middle">100n</text></g><g class="elmo-part"><g transform="matrix(1 0 0 1 26.1 94)"><line class="elmo-pin" x1="-14" y1="19" x2="29" y2="19"/><line class="elmo-pin" x1="41" y1="19" x2="84" y2="19"/><line class="elmo-sym" x1="31" y1="10" x2="31" y2="28"/><path class="elmo-sym" d="M 41,10 Q 36,19 41,28"/><text class="elmo-symtext" x="23" y="8" text-anchor="middle">+</text></g><text class="elmo-ref" x="61.1" y="76" text-anchor="middle" dominant-baseline="middle">C2</text><text class="elmo-value" x="61.1" y="88" text-anchor="middle" dominant-baseline="middle">10u</text></g><g class="elmo-part"><g transform="matrix(1 0 0 1 168.3 94)"><line class="elmo-pin" x1="-14" y1="19" x2="19" y2="19"/><line class="elmo-pin" x1="51" y1="19" x2="84" y2="19"/><path class="elmo-sym" d="M 19,19 a 4,4 0 0 1 8,0 a 4,4 0 0 1 8,0 a 4,4 0 0 1 8,0 a 4,4 0 0 1 8,0"/></g><text class="elmo-ref" x="203.3" y="76" text-anchor="middle" dominant-baseline="middle">L1</text><text class="elmo-value" x="203.3" y="88" text-anchor="middle" dominant-baseline="middle">4u7</text></g><g class="elmo-part"><g transform="matrix(1 0 0 1 310.5 94)"><line class="elmo-pin" x1="-14" y1="19" x2="23" y2="19"/><line class="elmo-pin" x1="47" y1="19" x2="84" y2="19"/><rect class="elmo-sym" x="23" y="14" width="24" height="10" rx="5"/></g><text class="elmo-ref" x="345.5" y="88" text-anchor="middle" dominant-baseline="middle">FB1</text></g><g class="elmo-part"><g transform="matrix(1 0 0 1 452.7 94)"><line class="elmo-pin" x1="-14" y1="19" x2="22" y2="19"/><line class="elmo-pin" x1="48" y1="19" x2="84" y2="19"/><rect class="elmo-sym" x="22" y="13" width="26" height="12" rx="6"/><line class="elmo-sym" x1="22" y1="19" x2="48" y2="19"/></g><text class="elmo-ref" x="487.7" y="76" text-anchor="middle" dominant-baseline="middle">F1</text><text class="elmo-value" x="487.7" y="88" text-anchor="middle" dominant-baseline="middle">500mA</text></g><g class="elmo-part"><g transform="matrix(1 0 0 1 594.9 94)"><line class="elmo-pin" x1="-14" y1="19" x2="28" y2="19"/><line class="elmo-pin" x1="42" y1="19" x2="84" y2="19"/><line class="elmo-sym" x1="29" y1="10" x2="29" y2="28"/><line class="elmo-sym" x1="41" y1="10" x2="41" y2="28"/><rect class="elmo-sym" x="32" y="12" width="6" height="14" rx="0"/></g><text class="elmo-ref" x="629.9" y="76" text-anchor="middle" dominant-baseline="middle">Y1</text><text class="elmo-value" x="629.9" y="88" text-anchor="middle" dominant-baseline="middle">16MHz</text></g><g class="elmo-part"><g transform="matrix(1 0 0 1 168.3 520)"><line class="elmo-pin" x1="-14" y1="26.67" x2="27" y2="26.67"/><line class="elmo-pin" x1="-14" y1="53.33" x2="27" y2="53.33"/><line class="elmo-pin" x1="84" y1="26.67" x2="43" y2="26.67"/><line class="elmo-pin" x1="84" y1="53.33" x2="43" y2="53.33"/><path class="elmo-sym" d="M 27,26.67 a 4.444444444444444,4.444444444444444 0 0 1 0,8.888888888888888 a 4.444444444444444,4.444444444444444 0 0 1 0,8.888888888888888 a 4.444444444444444,4.444444444444444 0 0 1 0,8.888888888888888"/><path class="elmo-sym" d="M 43,26.67 a 4.444444444444444,4.444444444444444 0 0 0 0,8.888888888888888 a 4.444444444444444,4.444444444444444 0 0 0 0,8.888888888888888 a 4.444444444444444,4.444444444444444 0 0 0 0,8.888888888888888"/><line class="elmo-sym" x1="34" y1="26.67" x2="34" y2="53.33"/><line class="elmo-sym" x1="36" y1="26.67" x2="36" y2="53.33"/></g><text class="elmo-ref" x="203.3" y="514" text-anchor="middle" dominant-baseline="middle">TR1</text></g><g class="elmo-part"><g transform="matrix(1 0 0 1 154.2 340)"><line class="elmo-pin" x1="-14" y1="19" x2="45" y2="19"/><line class="elmo-pin" x1="61" y1="19" x2="120" y2="19"/><path class="elmo-sym-fill" d="M 45,11 L 45,27 L 61,19 Z"/><line class="elmo-sym" x1="61" y1="11" x2="61" y2="27"/></g><text class="elmo-ref" x="207.2" y="322" text-anchor="middle" dominant-baseline="middle">D1</text><text class="elmo-value" x="207.2" y="334" text-anchor="middle" dominant-baseline="middle">1N4148</text></g><g class="elmo-part"><g transform="matrix(1 0 0 1 332.4 340)"><line class="elmo-pin" x1="-14" y1="19" x2="45" y2="19"/><line class="elmo-pin" x1="61" y1="19" x2="120" y2="19"/><path class="elmo-sym-fill" d="M 45,11 L 45,27 L 61,19 Z"/><line class="elmo-sym" x1="61" y1="11" x2="61" y2="27"/><line class="elmo-sym" x1="53" y1="9" x2="59" y2="2"/><path class="elmo-sym-fill" d="M 59,2 L 57.88,6.48 L 54.52,3.12 Z"/><line class="elmo-sym" x1="59" y1="9" x2="65" y2="2"/><path class="elmo-sym-fill" d="M 65,2 L 63.88,6.48 L 60.52,3.12 Z"/></g><text class="elmo-ref" x="385.4" y="322" text-anchor="middle" dominant-baseline="middle">D2</text><text class="elmo-value" x="385.4" y="334" text-anchor="middle" dominant-baseline="middle">red</text></g><g class="elmo-part"><g transform="matrix(1 0 0 1 510.6 340)"><line class="elmo-pin" x1="-14" y1="19" x2="45" y2="19"/><line class="elmo-pin" x1="61" y1="19" x2="120" y2="19"/><path class="elmo-sym-fill" d="M 45,11 L 45,27 L 61,19 Z"/><line class="elmo-sym" x1="61" y1="11" x2="61" y2="27"/><line class="elmo-sym" x1="61" y1="11" x2="57" y2="8"/><line class="elmo-sym" x1="61" y1="27" x2="65" y2="30"/></g><text class="elmo-ref" x="563.6" y="322" text-anchor="middle" dominant-baseline="middle">D3</text><text class="elmo-value" x="563.6" y="334" text-anchor="middle" dominant-baseline="middle">5V1</text></g><g class="elmo-part"><g transform="matrix(1 0 0 1 26.1 438)"><line class="elmo-pin" x1="-14" y1="19" x2="45" y2="19"/><line class="elmo-pin" x1="61" y1="19" x2="120" y2="19"/><path class="elmo-sym-fill" d="M 45,11 L 45,27 L 61,19 Z"/><line class="elmo-sym" x1="61" y1="11" x2="61" y2="27"/><polyline class="elmo-sym" fill="none" points="57,14 57,11 61,11"/><polyline class="elmo-sym" fill="none" points="65,24 65,27 61,27"/></g><text class="elmo-ref" x="79.1" y="420" text-anchor="middle" dominant-baseline="middle">D4</text><text class="elmo-value" x="79.1" y="432" text-anchor="middle" dominant-baseline="middle">BAT54</text></g><g class="elmo-part"><g transform="matrix(1 0 0 1 204.3 438)"><line class="elmo-pin" x1="-14" y1="19" x2="42" y2="19"/><line class="elmo-pin" x1="64" y1="19" x2="120" y2="19"/><path class="elmo-sym-fill" d="M 43,11 L 43,27 L 52,19 Z"/><path class="elmo-sym-fill" d="M 63,11 L 63,27 L 54,19 Z"/><line class="elmo-sym" x1="53" y1="11" x2="53" y2="27"/></g><text class="elmo-ref" x="257.3" y="420" text-anchor="middle" dominant-baseline="middle">D5</text><text class="elmo-value" x="257.3" y="432" text-anchor="middle" dominant-baseline="middle">SMAJ5</text></g><g class="elmo-part"><g transform="matrix(1 0 0 1 382.5 438)"><line class="elmo-pin" x1="-14" y1="19" x2="45" y2="19"/><line class="elmo-pin" x1="61" y1="19" x2="120" y2="19"/><path class="elmo-sym-fill" d="M 45,11 L 45,27 L 61,19 Z"/><line class="elmo-sym" x1="61" y1="11" x2="61" y2="27"/><line class="elmo-sym" x1="60" y1="0" x2="52" y2="8"/><path class="elmo-sym-fill" d="M 52,8 L 53.13,3.47 L 56.53,6.87 Z"/><line class="elmo-sym" x1="66" y1="0" x2="58" y2="8"/><path class="elmo-sym-fill" d="M 58,8 L 59.13,3.47 L 62.53,6.87 Z"/></g><text class="elmo-ref" x="435.5" y="432" text-anchor="middle" dominant-baseline="middle">D6</text></g><g class="elmo-part"><g transform="matrix(1 0 0 1 560.7 438)"><line class="elmo-pin" x1="-14" y1="19" x2="45" y2="19"/><line class="elmo-pin" x1="61" y1="19" x2="120" y2="19"/><path class="elmo-sym-fill" d="M 45,11 L 45,27 L 61,19 Z"/><line class="elmo-sym" x1="61" y1="11" x2="61" y2="27"/><line class="elmo-sym" x1="64" y1="11" x2="64" y2="27"/></g><text class="elmo-ref" x="613.7" y="432" text-anchor="middle" dominant-baseline="middle">D7</text></g><g class="elmo-part"><g transform="matrix(1 0 0 1 452.7 782.1)"><line class="elmo-pin" x1="35" y1="-14" x2="35" y2="8"/><line class="elmo-pin" x1="35" y1="68" x2="35" y2="46"/><line class="elmo-pin" x1="84" y1="27" x2="54" y2="27"/><line class="elmo-pin" x1="-14" y1="27" x2="16" y2="27"/><polyline class="elmo-sym" fill="none" points="35,8 54,27 35,46 16,27 35,8"/><path class="elmo-sym-fill" d="M 25.5,17.5 L 24.5,21.5 L 21.5,18.5 Z"/><path class="elmo-sym-fill" d="M 44.5,36.5 L 43.5,40.5 L 40.5,37.5 Z"/><path class="elmo-sym-fill" d="M 25.5,36.5 L 21.5,35.5 L 24.5,32.5 Z"/><path class="elmo-sym-fill" d="M 44.5,17.5 L 40.5,16.5 L 43.5,13.5 Z"/><text class="elmo-symtext" x="48" y="23" text-anchor="middle">+</text><text class="elmo-symtext" x="32" y="16" text-anchor="middle">~</text></g><text class="elmo-ref" x="452.7" y="752.1" text-anchor="start" dominant-baseline="middle">BR1</text></g><g class="elmo-part"><g transform="matrix(1 0 0 1 310.5 520)"><line class="elmo-pin" x1="-14" y1="40" x2="26" y2="40"/><line class="elmo-sym" x1="26" y1="29" x2="26" y2="51"/><polyline class="elmo-sym" fill="none" points="26,34 40,26.67 84,26.67"/><polyline class="elmo-sym" fill="none" points="26,46 40,53.33 84,53.33"/><path class="elmo-sym-fill" d="M 35.8,51.13 L 29.98,51.47 L 32.76,46.16 Z"/></g><text class="elmo-ref" x="345.5" y="502" text-anchor="middle" dominant-baseline="middle">Q1</text><text class="elmo-value" x="345.5" y="514" text-anchor="middle" dominant-baseline="middle">2N3904</text></g><g class="elmo-part"><g transform="matrix(1 0 0 1 452.7 520)"><line class="elmo-pin" x1="-14" y1="40" x2="26" y2="40"/><line class="elmo-sym" x1="26" y1="29" x2="26" y2="51"/><polyline class="elmo-sym" fill="none" points="26,34 40,26.67 84,26.67"/><polyline class="elmo-sym" fill="none" points="26,46 40,53.33 84,53.33"/><path class="elmo-sym-fill" d="M 30.76,48.49 L 36.58,48.16 L 33.8,53.47 Z"/></g><text class="elmo-ref" x="487.7" y="502" text-anchor="middle" dominant-baseline="middle">Q2</text><text class="elmo-value" x="487.7" y="514" text-anchor="middle" dominant-baseline="middle">2N3906</text></g><g class="elmo-part"><g transform="matrix(1 0 0 1 594.9 520)"><line class="elmo-pin" x1="-14" y1="40" x2="26" y2="40"/><line class="elmo-sym" x1="26" y1="29" x2="26" y2="51"/><polyline class="elmo-sym" fill="none" points="26,34 40,26.67 84,26.67"/><polyline class="elmo-sym" fill="none" points="26,46 40,53.33 84,53.33"/><path class="elmo-sym-fill" d="M 35.8,51.13 L 29.98,51.47 L 32.76,46.16 Z"/><line class="elmo-sym" x1="21" y1="33" x2="21" y2="47"/></g><text class="elmo-ref" x="629.9" y="502" text-anchor="middle" dominant-baseline="middle">Q3</text><text class="elmo-value" x="629.9" y="514" text-anchor="middle" dominant-baseline="middle">TIP120</text></g><g class="elmo-part"><g transform="matrix(1 0 0 1 26.1 644)"><line class="elmo-pin" x1="-14" y1="40" x2="26" y2="40"/><line class="elmo-sym" x1="26" y1="29" x2="26" y2="51"/><polyline class="elmo-sym" fill="none" points="26,34 40,26.67 84,26.67"/><polyline class="elmo-sym" fill="none" points="26,46 40,53.33 84,53.33"/><path class="elmo-sym-fill" d="M 35.8,51.13 L 29.98,51.47 L 32.76,46.16 Z"/><line class="elmo-sym" x1="30" y1="19" x2="22" y2="27"/><path class="elmo-sym-fill" d="M 22,27 L 23.13,22.47 L 26.53,25.87 Z"/><line class="elmo-sym" x1="30" y1="25" x2="22" y2="33"/><path class="elmo-sym-fill" d="M 22,33 L 23.13,28.47 L 26.53,31.87 Z"/></g><text class="elmo-ref" x="61.1" y="638" text-anchor="middle" dominant-baseline="middle">Q4</text></g><g class="elmo-part"><g transform="matrix(1 0 0 1 168.3 644)"><line class="elmo-pin" x1="-14" y1="40" x2="22" y2="40"/><line class="elmo-sym" x1="22" y1="29" x2="22" y2="51"/><line class="elmo-sym" x1="28" y1="29" x2="28" y2="51"/><polyline class="elmo-sym" fill="none" points="28,33 42,26.67 84,26.67"/><polyline class="elmo-sym" fill="none" points="28,47 42,53.33 84,53.33"/><path class="elmo-sym-fill" d="M 36.4,50.8 L 30.61,51.47 L 33.08,46.01 Z"/></g><text class="elmo-ref" x="203.3" y="638" text-anchor="middle" dominant-baseline="middle">Q5</text></g><g class="elmo-part"><g transform="matrix(1 0 0 1 310.5 644)"><line class="elmo-pin" x1="-14" y1="40" x2="24" y2="40"/><line class="elmo-sym" x1="24" y1="29" x2="24" y2="51"/><line class="elmo-sym" x1="30" y1="29" x2="30" y2="36"/><line class="elmo-sym" x1="30" y1="38" x2="30" y2="42"/><line class="elmo-sym" x1="30" y1="44" x2="30" y2="51"/><polyline class="elmo-sym" fill="none" points="84,26.67 42,26.67 30,33"/><polyline class="elmo-sym" fill="none" points="84,53.33 42,53.33 30,47"/><path class="elmo-sym-fill" d="M 30,40 L 25.5,42.7 L 25.5,37.3 Z"/></g><text class="elmo-ref" x="345.5" y="626" text-anchor="middle" dominant-baseline="middle">M1</text><text class="elmo-value" x="345.5" y="638" text-anchor="middle" dominant-baseline="middle">2N7000</text></g><g class="elmo-part"><g transform="matrix(1 0 0 1 452.7 644)"><line class="elmo-pin" x1="-14" y1="40" x2="24" y2="40"/><line class="elmo-sym" x1="24" y1="29" x2="24" y2="51"/><line class="elmo-sym" x1="30" y1="29" x2="30" y2="36"/><line class="elmo-sym" x1="30" y1="38" x2="30" y2="42"/><line class="elmo-sym" x1="30" y1="44" x2="30" y2="51"/><polyline class="elmo-sym" fill="none" points="84,26.67 42,26.67 30,33"/><polyline class="elmo-sym" fill="none" points="84,53.33 42,53.33 30,47"/><path class="elmo-sym-fill" d="M 25,40 L 29.5,37.3 L 29.5,42.7 Z"/></g><text class="elmo-ref" x="487.7" y="638" text-anchor="middle" dominant-baseline="middle">M2</text></g><g class="elmo-part"><g transform="matrix(1 0 0 1 594.9 644)"><line class="elmo-pin" x1="-14" y1="40" x2="24" y2="40"/><line class="elmo-sym" x1="24" y1="29" x2="24" y2="51"/><line class="elmo-sym" x1="30" y1="29" x2="30" y2="51"/><polyline class="elmo-sym" fill="none" points="84,26.67 42,26.67 30,33"/><polyline class="elmo-sym" fill="none" points="84,53.33 42,53.33 30,47"/><path class="elmo-sym-fill" d="M 30,40 L 25.5,42.7 L 25.5,37.3 Z"/></g><text class="elmo-ref" x="629.9" y="638" text-anchor="middle" dominant-baseline="middle">M3</text></g><g class="elmo-part"><g transform="matrix(1 0 0 1 26.1 768)"><line class="elmo-pin" x1="-14" y1="40" x2="24" y2="40"/><line class="elmo-sym" x1="24" y1="29" x2="24" y2="51"/><polyline class="elmo-sym" fill="none" points="84,26.67 36,26.67 24,33"/><polyline class="elmo-sym" fill="none" points="84,53.33 36,53.33 24,47"/><path class="elmo-sym-fill" d="M 24,40 L 19.5,42.7 L 19.5,37.3 Z"/></g><text class="elmo-ref" x="61.1" y="750" text-anchor="middle" dominant-baseline="middle">J1</text><text class="elmo-value" x="61.1" y="762" text-anchor="middle" dominant-baseline="middle">J201</text></g><g class="elmo-part"><g transform="matrix(1 0 0 1 168.3 768)"><line class="elmo-pin" x1="-14" y1="40" x2="24" y2="40"/><line class="elmo-sym" x1="24" y1="29" x2="24" y2="51"/><polyline class="elmo-sym" fill="none" points="84,26.67 36,26.67 24,33"/><polyline class="elmo-sym" fill="none" points="84,53.33 36,53.33 24,47"/><path class="elmo-sym-fill" d="M 24,40 L 28.5,37.3 L 28.5,42.7 Z"/></g><text class="elmo-ref" x="203.3" y="762" text-anchor="middle" dominant-baseline="middle">J2</text></g><g class="elmo-part"><g transform="matrix(1 0 0 1 26.1 934.1)"><path class="elmo-sym" d="M 16,18.67 L 16,61.33 L 64,40 Z"/><line class="elmo-pin" x1="-14" y1="26.67" x2="16" y2="26.67"/><line class="elmo-pin" x1="-14" y1="53.33" x2="16" y2="53.33"/><line class="elmo-pin" x1="64" y1="40" x2="84" y2="40"/><text class="elmo-symtext" x="23" y="26.67" text-anchor="middle">+</text><text class="elmo-symtext" x="23" y="53.33" text-anchor="middle">−</text><line class="elmo-pin" x1="35" y1="-14" x2="35" y2="27.11"/><line class="elmo-pin" x1="35" y1="94" x2="35" y2="52.89"/></g><text class="elmo-ref" x="26.1" y="892.1" text-anchor="start" dominant-baseline="middle">U1</text><text class="elmo-value" x="26.1" y="904.1" text-anchor="start" dominant-baseline="middle">LM358</text></g><g class="elmo-part"><g transform="matrix(1 0 0 1 26.1 176)"><line class="elmo-pin" x1="-14" y1="19" x2="22" y2="19"/><line class="elmo-pin" x1="48" y1="19" x2="84" y2="19"/><circle class="elmo-sym" cx="35" cy="19" r="13"/><text class="elmo-symtext" x="30" y="16" text-anchor="middle">+</text><text class="elmo-symtext" x="40" y="16" text-anchor="middle">−</text></g><text class="elmo-ref" x="61.1" y="158" text-anchor="middle" dominant-baseline="middle">V1</text><text class="elmo-value" x="61.1" y="170" text-anchor="middle" dominant-baseline="middle">5V</text></g><g class="elmo-part"><g transform="matrix(1 0 0 1 168.3 176)"><line class="elmo-pin" x1="-14" y1="19" x2="22" y2="19"/><line class="elmo-pin" x1="48" y1="19" x2="84" y2="19"/><circle class="elmo-sym" cx="35" cy="19" r="13"/><line class="elmo-sym" x1="35" y1="26" x2="35" y2="12"/><path class="elmo-sym-fill" d="M 35,12 L 38,17 L 32,17 Z"/></g><text class="elmo-ref" x="203.3" y="158" text-anchor="middle" dominant-baseline="middle">I1</text><text class="elmo-value" x="203.3" y="170" text-anchor="middle" dominant-baseline="middle">1mA</text></g><g class="elmo-part"><g transform="matrix(1 0 0 1 310.5 176)"><line class="elmo-pin" x1="-14" y1="19" x2="22" y2="19"/><line class="elmo-pin" x1="48" y1="19" x2="84" y2="19"/><circle class="elmo-sym" cx="35" cy="19" r="13"/><path class="elmo-sym" d="M 28,19 Q 31.5,12 35,19 T 42,19"/></g><text class="elmo-ref" x="345.5" y="158" text-anchor="middle" dominant-baseline="middle">AC1</text><text class="elmo-value" x="345.5" y="170" text-anchor="middle" dominant-baseline="middle">230V</text></g><g class="elmo-part"><g transform="matrix(1 0 0 1 452.7 176)"><line class="elmo-pin" x1="-14" y1="19" x2="26" y2="19"/><line class="elmo-pin" x1="44" y1="19" x2="84" y2="19"/><line class="elmo-sym" x1="26" y1="10" x2="26" y2="28"/><line class="elmo-sym" x1="32" y1="14" x2="32" y2="24"/><line class="elmo-sym" x1="38" y1="10" x2="38" y2="28"/><line class="elmo-sym" x1="44" y1="14" x2="44" y2="24"/></g><text class="elmo-ref" x="487.7" y="158" text-anchor="middle" dominant-baseline="middle">BT1</text><text class="elmo-value" x="487.7" y="170" text-anchor="middle" dominant-baseline="middle">3V6</text></g><g class="elmo-part"><g transform="matrix(1 0 0 1 594.9 176)"><line class="elmo-pin" x1="-14" y1="19" x2="22" y2="19"/><line class="elmo-pin" x1="48" y1="19" x2="84" y2="19"/><circle class="elmo-sym" cx="35" cy="19" r="13"/><line class="elmo-sym" x1="25.9" y1="9.9" x2="44.1" y2="28.1"/><line class="elmo-sym" x1="25.9" y1="28.1" x2="44.1" y2="9.9"/></g><text class="elmo-ref" x="629.9" y="170" text-anchor="middle" dominant-baseline="middle">LP1</text></g><g class="elmo-part"><g transform="matrix(1 0 0 1 26.1 258)"><line class="elmo-pin" x1="-14" y1="19" x2="22" y2="19"/><line class="elmo-pin" x1="48" y1="19" x2="84" y2="19"/><circle class="elmo-sym" cx="35" cy="19" r="13"/><text class="elmo-symtext" x="35" y="19" text-anchor="middle">M</text></g><text class="elmo-ref" x="61.1" y="252" text-anchor="middle" dominant-baseline="middle">MOT1</text></g><g class="elmo-part"><g transform="matrix(1 0 0 1 168.3 258)"><line class="elmo-pin" x1="-14" y1="19" x2="25" y2="19"/><line class="elmo-pin" x1="45" y1="19" x2="84" y2="19"/><rect class="elmo-sym" x="27" y="13" width="8" height="12" rx="0"/><path class="elmo-sym" d="M 35,13 L 45,7 L 45,31 L 35,25 Z"/></g><text class="elmo-ref" x="203.3" y="252" text-anchor="middle" dominant-baseline="middle">SPK1</text></g><g class="elmo-part"><g transform="matrix(1 0 0 1 310.5 258)"><line class="elmo-pin" x1="-14" y1="19" x2="24" y2="19"/><line class="elmo-pin" x1="46" y1="19" x2="84" y2="19"/><path class="elmo-sym" d="M 25,27 L 25,19 A 10,10 0 0 1 45,19 L 45,27 Z"/></g><text class="elmo-ref" x="345.5" y="252" text-anchor="middle" dominant-baseline="middle">BZ1</text></g><g class="elmo-part"><g transform="matrix(1 0 0 1 452.7 258)"><line class="elmo-pin" x1="-14" y1="19" x2="22" y2="19"/><line class="elmo-pin" x1="48" y1="19" x2="84" y2="19"/><circle class="elmo-sym-fill" cx="24" cy="19" r="1.8"/><circle class="elmo-sym-fill" cx="46" cy="19" r="1.8"/><line class="elmo-sym" x1="24" y1="19" x2="41" y2="8"/></g><text class="elmo-ref" x="487.7" y="252" text-anchor="middle" dominant-baseline="middle">SW1</text></g><g class="elmo-part"><g transform="matrix(1 0 0 1 310.5 768)"><line class="elmo-pin" x1="-14" y1="40" x2="22" y2="40"/><line class="elmo-pin" x1="84" y1="26.67" x2="34" y2="26.67"/><line class="elmo-pin" x1="84" y1="53.33" x2="34" y2="53.33"/><circle class="elmo-sym-fill" cx="22" cy="40" r="1.8"/><circle class="elmo-sym-fill" cx="34" cy="26.67" r="1.8"/><circle class="elmo-sym-fill" cx="34" cy="53.33" r="1.8"/><line class="elmo-sym" x1="22" y1="40" x2="33" y2="28.67"/></g><text class="elmo-ref" x="345.5" y="762" text-anchor="middle" dominant-baseline="middle">SW2</text></g><g class="elmo-part"><g transform="matrix(1 0 0 1 594.9 258)"><line class="elmo-pin" x1="-14" y1="19" x2="23" y2="19"/><line class="elmo-pin" x1="47" y1="19" x2="84" y2="19"/><circle class="elmo-sym-fill" cx="23" cy="19" r="1.8"/><circle class="elmo-sym-fill" cx="47" cy="19" r="1.8"/><line class="elmo-sym" x1="24" y1="13" x2="46" y2="13"/><line class="elmo-sym" x1="35" y1="13" x2="35" y2="6"/><line class="elmo-sym" x1="29" y1="6" x2="41" y2="6"/></g><text class="elmo-ref" x="629.9" y="252" text-anchor="middle" dominant-baseline="middle">PB1</text></g><g class="elmo-part"><g transform="matrix(1 0 0 1 594.9 768)"><line class="elmo-pin" x1="-14" y1="36" x2="20" y2="36"/><line class="elmo-pin" x1="-14" y1="72" x2="20" y2="72"/><rect class="elmo-sym" x="20" y="36" width="12" height="36" rx="0"/><line class="elmo-pin" x1="84" y1="27" x2="50" y2="27"/><line class="elmo-pin" x1="84" y1="54" x2="50" y2="54"/><line class="elmo-pin" x1="84" y1="81" x2="50" y2="81"/><circle class="elmo-sym-fill" cx="50" cy="27" r="1.8"/><circle class="elmo-sym-fill" cx="50" cy="54" r="1.8"/><circle class="elmo-sym-fill" cx="50" cy="81" r="1.8"/><line class="elmo-sym" x1="50" y1="27" x2="50" y2="54"/><line class="elmo-dash" x1="32" y1="54" x2="50" y2="54"/></g><text class="elmo-ref" x="629.9" y="762" text-anchor="middle" dominant-baseline="middle">K1</text></g><g class="elmo-part"><g transform="matrix(1 0 0 1 26.1 340)"><line class="elmo-pin" x1="-14" y1="27" x2="16" y2="27"/><line class="elmo-sym" x1="16" y1="27" x2="16" y2="23"/><line class="elmo-sym" x1="16" y1="23" x2="7" y2="11"/><line class="elmo-sym" x1="16" y1="23" x2="25" y2="11"/></g><text class="elmo-ref" x="61.1" y="334" text-anchor="middle" dominant-baseline="middle">ANT1</text></g></g></svg>