<svg xmlns="http://www.w3.org/2000/svg" class="elmo" viewBox="0 0 474.4 829.72" width="474.4" height="829.72" font-family="sans-serif"><style>.elmo{--elmo-fg:#1c1c1c;--elmo-bg:#ffffff;--elmo-accent:#b23b2e;--elmo-muted:#666;--elmo-tag:#f3f3f3;}
@media (prefers-color-scheme: dark){.elmo{--elmo-fg:#e6e6e6;--elmo-bg:#1e1e1e;--elmo-accent:#ff7a6e;--elmo-muted:#9a9a9a;--elmo-tag:#2a2a2a;}}
:root[data-theme="dark"] .elmo{--elmo-fg:#e6e6e6;--elmo-bg:#1e1e1e;--elmo-accent:#ff7a6e;--elmo-muted:#9a9a9a;--elmo-tag:#2a2a2a;}
:root[data-theme="light"] .elmo{--elmo-fg:#1c1c1c;--elmo-bg:#ffffff;--elmo-accent:#b23b2e;--elmo-muted:#666;--elmo-tag:#f3f3f3;}
.elmo.elmo-theme-light{--elmo-fg:#1c1c1c;--elmo-bg:#ffffff;--elmo-accent:#b23b2e;--elmo-muted:#666;--elmo-tag:#f3f3f3;}
.elmo.elmo-theme-dark{--elmo-fg:#e6e6e6;--elmo-bg:#1e1e1e;--elmo-accent:#ff7a6e;--elmo-muted:#9a9a9a;--elmo-tag:#2a2a2a;}
.elmo.elmo-theme-mono{--elmo-fg:#111;--elmo-bg:#fff;--elmo-accent:#111;--elmo-muted:#555;--elmo-tag:#fff;}
.elmo .elmo-body{fill:var(--elmo-bg);stroke:var(--elmo-fg);stroke-width:1.5;}
.elmo .elmo-pin,.elmo .elmo-net,.elmo .elmo-wire{stroke:var(--elmo-fg);stroke-width:1.2;fill:none;}
.elmo .elmo-sym{stroke:var(--elmo-fg);stroke-width:1.5;fill:none;stroke-linejoin:round;stroke-linecap:round;}
.elmo .elmo-sym-fill{stroke:var(--elmo-fg);stroke-width:1;fill:var(--elmo-fg);}
.elmo .elmo-symtext{fill:var(--elmo-fg);font:600 10px ui-sans-serif,system-ui,sans-serif;dominant-baseline:middle;}
.elmo .elmo-dash{stroke:var(--elmo-muted);stroke-width:1;stroke-dasharray:2 2;}
.elmo .elmo-ref{fill:var(--elmo-fg);font:700 12px ui-sans-serif,system-ui,sans-serif;}
.elmo .elmo-value{fill:var(--elmo-muted);font:400 10px ui-sans-serif,system-ui,sans-serif;}
.elmo .elmo-pinname{fill:var(--elmo-fg);font:400 10px ui-monospace,monospace;}
.elmo .elmo-pinnum{fill:var(--elmo-muted);font:400 8px ui-monospace,monospace;}
.elmo .elmo-powerlabel,.elmo .elmo-gndlabel,.elmo .elmo-signallabel{fill:var(--elmo-accent);font:600 9px ui-monospace,monospace;}
.elmo .elmo-signal{fill:var(--elmo-bg);stroke:var(--elmo-accent);stroke-width:1.5;}
.elmo .elmo-taglabel{fill:var(--elmo-tag);stroke:var(--elmo-accent);stroke-width:1;}
.elmo .elmo-nettext{fill:var(--elmo-accent);font:600 9px ui-monospace,monospace;}
.elmo .elmo-title{fill:var(--elmo-fg);font:700 15px ui-sans-serif,system-ui,sans-serif;}
.elmo .elmo-junction{fill:var(--elmo-fg);stroke:none;}
.elmo .elmo-group{fill:none;stroke:var(--elmo-muted);stroke-width:1;stroke-dasharray:5 4;}
.elmo .elmo-grouplabel{fill:var(--elmo-muted);font:600 11px ui-sans-serif,system-ui,sans-serif;}
.elmo a text{fill:var(--elmo-accent);text-decoration:underline;cursor:pointer;}
.elmo text{paint-order:stroke;stroke:var(--elmo-bg);stroke-width:3px;stroke-linejoin:round;}</style><rect x="0" y="0" width="474.4" height="829.72" fill="var(--elmo-bg)"/><text class="elmo-title" x="56" y="20" text-anchor="start" dominant-baseline="middle">M2 symbol showcase</text><g transform="translate(56 86)"><polyline class="elmo-wire" fill="none" points="110.2,31.05 180.2,31.05"/><polyline class="elmo-wire" fill="none" points="42,195.05 12,195.05 12,234 210.2,234"/><polyline class="elmo-wire" fill="none" points="146.2,113.05 216.2,113.05"/><polyline class="elmo-wire" fill="none" points="110.2,396.95 308.4,396.95 308.4,350.33 278.4,350.33"/><polyline class="elmo-wire" fill="none" points="110.2,622.43 308.4,622.43 308.4,548.38 278.4,548.38"/><g class="elmo-part"><g transform="matrix(1 0 0 1 26.1 12)"><line class="elmo-pin" x1="-14" y1="19" x2="17" y2="19"/><line class="elmo-pin" x1="53" y1="19" x2="84" y2="19"/><polyline class="elmo-sym" fill="none" points="17,19 23,13 29,25 35,13 41,25 47,13 53,19"/></g><text class="elmo-ref" x="61.1" y="-6" text-anchor="middle" dominant-baseline="middle">R1</text><text class="elmo-value" x="61.1" y="6" text-anchor="middle" dominant-baseline="middle">10k</text></g><g class="elmo-part"><g transform="matrix(1 0 0 1 194.3 12)"><line class="elmo-pin" x1="-14" y1="19" x2="30" y2="19"/><line class="elmo-pin" x1="40" y1="19" x2="84" y2="19"/><line class="elmo-sym" x1="31" y1="10" x2="31" y2="28"/><line class="elmo-sym" x1="39" y1="10" x2="39" y2="28"/></g><text class="elmo-ref" x="229.3" y="-6" text-anchor="middle" dominant-baseline="middle">C1</text><text class="elmo-value" x="229.3" y="6" text-anchor="middle" dominant-baseline="middle">100n</text></g><g class="elmo-part"><g transform="matrix(1 0 0 1 56.1 176)"><line class="elmo-pin" x1="-14" y1="19" x2="29" y2="19"/><line class="elmo-pin" x1="41" y1="19" x2="84" y2="19"/><line class="elmo-sym" x1="31" y1="10" x2="31" y2="28"/><path class="elmo-sym" d="M 41,10 Q 36,19 41,28"/><text class="elmo-symtext" x="23" y="8" text-anchor="middle">+</text></g><text class="elmo-ref" x="91.1" y="158" text-anchor="middle" dominant-baseline="middle">C2</text><text class="elmo-value" x="91.1" y="170" text-anchor="middle" dominant-baseline="middle">10u</text></g><g class="elmo-part"><g transform="matrix(1 0 0 1 224.3 214.95)"><line class="elmo-pin" x1="-14" y1="19" x2="19" y2="19"/><line class="elmo-pin" x1="51" y1="19" x2="84" y2="19"/><path class="elmo-sym" d="M 19,19 a 4,4 0 0 1 8,0 a 4,4 0 0 1 8,0 a 4,4 0 0 1 8,0 a 4,4 0 0 1 8,0"/></g><text class="elmo-ref" x="259.3" y="196.95" text-anchor="middle" dominant-baseline="middle">L1</text><text class="elmo-value" x="259.3" y="208.95" text-anchor="middle" dominant-baseline="middle">4u7</text></g><g class="elmo-part"><g transform="matrix(1 0 0 1 26.1 94)"><line class="elmo-pin" x1="-14" y1="19" x2="45" y2="19"/><line class="elmo-pin" x1="61" y1="19" x2="120" y2="19"/><path class="elmo-sym-fill" d="M 45,11 L 45,27 L 61,19 Z"/><line class="elmo-sym" x1="61" y1="11" x2="61" y2="27"/></g><text class="elmo-ref" x="79.1" y="76" text-anchor="middle" dominant-baseline="middle">D1</text><text class="elmo-value" x="79.1" y="88" text-anchor="middle" dominant-baseline="middle">1N4148</text></g><g class="elmo-part"><g transform="matrix(1 0 0 1 230.3 94)"><line class="elmo-pin" x1="-14" y1="19" x2="45" y2="19"/><line class="elmo-pin" x1="61" y1="19" x2="120" y2="19"/><path class="elmo-sym-fill" d="M 45,11 L 45,27 L 61,19 Z"/><line class="elmo-sym" x1="61" y1="11" x2="61" y2="27"/><line class="elmo-sym" x1="53" y1="9" x2="59" y2="2"/><path class="elmo-sym-fill" d="M 59,2 L 57.88,6.48 L 54.52,3.12 Z"/><line class="elmo-sym" x1="59" y1="9" x2="65" y2="2"/><path class="elmo-sym-fill" d="M 65,2 L 63.88,6.48 L 60.52,3.12 Z"/></g><text class="elmo-ref" x="283.3" y="76" text-anchor="middle" dominant-baseline="middle">D2</text><text class="elmo-value" x="283.3" y="88" text-anchor="middle" dominant-baseline="middle">red</text></g><g class="elmo-part"><g transform="matrix(1 0 0 1 26.1 370.233)"><line class="elmo-pin" x1="-14" y1="40" x2="26" y2="40"/><line class="elmo-sym" x1="26" y1="29" x2="26" y2="51"/><polyline class="elmo-sym" fill="none" points="26,34 40,26.67 84,26.67"/><polyline class="elmo-sym" fill="none" points="26,46 40,53.33 84,53.33"/><path class="elmo-sym-fill" d="M 35.8,51.13 L 29.98,51.47 L 32.76,46.16 Z"/></g><text class="elmo-ref" x="61.1" y="352.23" text-anchor="middle" dominant-baseline="middle">Q1</text><text class="elmo-value" x="61.1" y="364.23" text-anchor="middle" dominant-baseline="middle">2N3904</text></g><g class="elmo-part"><g transform="matrix(1 0 0 1 194.3 296.95)"><line class="elmo-pin" x1="-14" y1="40" x2="26" y2="40"/><line class="elmo-sym" x1="26" y1="29" x2="26" y2="51"/><polyline class="elmo-sym" fill="none" points="26,34 40,26.67 84,26.67"/><polyline class="elmo-sym" fill="none" points="26,46 40,53.33 84,53.33"/><path class="elmo-sym-fill" d="M 30.76,48.49 L 36.58,48.16 L 33.8,53.47 Z"/></g><text class="elmo-ref" x="229.3" y="278.95" text-anchor="middle" dominant-baseline="middle">Q2</text><text class="elmo-value" x="229.3" y="290.95" text-anchor="middle" dominant-baseline="middle">2N3906</text></g><g class="elmo-part"><g transform="matrix(1 0 0 1 26.1 595.717)"><line class="elmo-pin" x1="-14" y1="40" x2="24" y2="40"/><line class="elmo-sym" x1="24" y1="29" x2="24" y2="51"/><line class="elmo-sym" x1="30" y1="29" x2="30" y2="36"/><line class="elmo-sym" x1="30" y1="38" x2="30" y2="42"/><line class="elmo-sym" x1="30" y1="44" x2="30" y2="51"/><polyline class="elmo-sym" fill="none" points="84,26.67 42,26.67 30,33"/><polyline class="elmo-sym" fill="none" points="84,53.33 42,53.33 30,47"/><path class="elmo-sym-fill" d="M 30,40 L 25.5,42.7 L 25.5,37.3 Z"/></g><text class="elmo-ref" x="61.1" y="577.72" text-anchor="middle" dominant-baseline="middle">M1</text><text class="elmo-value" x="61.1" y="589.72" text-anchor="middle" dominant-baseline="middle">2N7000</text></g><g class="elmo-part"><g transform="matrix(1 0 0 1 194.3 508.333)"><path class="elmo-sym" d="M 16,18.67 L 16,61.33 L 64,40 Z"/><line class="elmo-pin" x1="-14" y1="26.67" x2="16" y2="26.67"/><line class="elmo-pin" x1="-14" y1="53.33" x2="16" y2="53.33"/><line class="elmo-pin" x1="64" y1="40" x2="84" y2="40"/><text class="elmo-symtext" x="23" y="26.67" text-anchor="middle">+</text><text class="elmo-symtext" x="23" y="53.33" text-anchor="middle">−</text><line class="elmo-pin" x1="35" y1="-14" x2="35" y2="27.11"/><line class="elmo-pin" x1="35" y1="94" x2="35" y2="52.89"/></g><text class="elmo-ref" x="194.3" y="466.33" text-anchor="start" dominant-baseline="middle">U1</text><text class="elmo-value" x="194.3" y="478.33" text-anchor="start" dominant-baseline="middle">LM358</text></g><line class="elmo-net" x1="12.1" y1="31" x2="6.1" y2="31"/><line class="elmo-net" x1="6.1" y1="23" x2="6.1" y2="39"/><line class="elmo-net" x1="2.1" y1="26" x2="2.1" y2="36"/><line class="elmo-net" x1="-1.9" y1="29" x2="-1.9" y2="33"/><line class="elmo-net" x1="278.3" y1="31" x2="284.3" y2="31"/><line class="elmo-net" x1="284.3" y1="39" x2="284.3" y2="23"/><line class="elmo-net" x1="288.3" y1="36" x2="288.3" y2="26"/><line class="elmo-net" x1="292.3" y1="33" x2="292.3" y2="29"/><line class="elmo-net" x1="229.3" y1="602.33" x2="229.3" y2="608.33"/><line class="elmo-net" x1="221.3" y1="608.33" x2="237.3" y2="608.33"/><line class="elmo-net" x1="224.3" y1="612.33" x2="234.3" y2="612.33"/><line class="elmo-net" x1="227.3" y1="616.33" x2="231.3" y2="616.33"/><line class="elmo-net" x1="229.3" y1="494.33" x2="229.3" y2="486.33"/><line class="elmo-net" x1="238.3" y1="486.33" x2="220.3" y2="486.33"/><text class="elmo-powerlabel" x="229.3" y="479.33" text-anchor="middle" dominant-baseline="middle">VCC</text></g></svg>